<svg width="58" height="10" viewBox="0 0 58 10" fill="none" xmlns="http://www.w3.org/2000/svg">
<path d="M4.86261 0L6.14961 3.75107H9.72559L6.80884 6.05092L8.10735 10L4.86261 7.53299L1.61802 10L2.91654 6.05092L-0.000360489 3.75107H3.57562L4.86261 0Z" fill="#1E1E1C"/>
<path d="M16.931 0L18.218 3.75107H21.7939L18.8772 6.05092L20.1757 10L16.931 7.53299L13.6864 10L14.9849 6.05092L12.068 3.75107H15.644L16.931 0Z" fill="#1E1E1C"/>
<path d="M28.9993 0L30.2863 3.75107H33.8623L30.9456 6.05092L32.2441 10L28.9993 7.53299L25.7547 10L27.0533 6.05092L24.1364 3.75107H27.7123L28.9993 0Z" fill="#1E1E1C"/>
<path d="M41.0677 0L42.3547 3.75107H45.9307L43.0139 6.05092L44.3124 10L41.0677 7.53299L37.8231 10L39.1216 6.05092L36.2047 3.75107H39.7807L41.0677 0Z" fill="#1E1E1C"/>
<path fill-rule="evenodd" clip-rule="evenodd" d="M54.424 3.75107L53.137 0L51.85 3.75107H48.2741L51.191 6.05092L49.8924 10L53.137 7.53299L56.3818 10L55.0833 6.05092L58 3.75107H54.424ZM55.4026 8.56542L53.1368 6.84266V1.53189L54.0523 4.20039H56.5388L54.4968 5.81058L55.4026 8.56542Z" fill="#1E1E1C"/>
</svg>
